<svg width="48" height="48" viewBox="0 0 48 48" fill="none" xmlns="http://www.w3.org/2000/svg">
<path d="M15.9535 27.8637L20.9243 14.2368C21.3755 12.9997 22.7632 12.3841 23.9832 12.8798C25.1732 13.3633 25.7455 14.7203 25.2611 15.91L23.8795 19.303C23.7946 19.5116 24.0658 19.6796 24.2148 19.5106L31.2683 11.5111C32.1395 10.523 33.6659 10.4809 34.5904 11.4194C35.4409 12.2828 35.4637 13.6619 34.6423 14.553L27.8359 21.9367L30.3366 19.2979C31.2251 18.3604 32.7415 18.4407 33.5259 19.4668C34.1587 20.2945 34.0881 21.4611 33.3602 22.2065L30.8029 24.8252L32.5325 23.0722C33.4734 22.1186 35.0515 22.2645 35.8015 23.3745C36.3707 24.2168 36.2626 25.3444 35.5437 26.0633L33.7777 27.8291L34.6524 27.0188C35.6373 26.1066 37.2012 26.2752 37.9689 27.3765C38.5615 28.2268 38.4888 29.3795 37.7583 30.1147C33.8913 34.0065 30.763 35.6339 26.1383 38.5328M15.9535 27.8637L26.1383 38.5328M15.9535 27.8637C15.3716 27.2632 14.409 27.2609 13.8242 27.8586L9.70826 32.0651C9.3251 32.4567 9.32837 33.0837 9.71558 33.4712L20.7169 44.4828C21.1165 44.8828 21.768 44.8722 22.1544 44.4594L26.1383 40.2032C26.5782 39.7333 26.5782 39.0027 26.1383 38.5328M22.084 8.39348L19.4384 6.76601M26.1383 6.76601L25.0177 2.78564M30.5174 6.76601L32.2556 4.69567" stroke="#475467" stroke-width="2" stroke-linecap="round"/>
</svg>
