<svg width="48" height="48" viewBox="0 0 48 48" fill="none" xmlns="http://www.w3.org/2000/svg">
<path d="M4 29.0001L23.2845 38.6424C23.5468 38.7735 23.678 38.8391 23.8156 38.8649C23.9375 38.8878 24.0625 38.8878 24.1844 38.8649C24.322 38.8391 24.4532 38.7735 24.7155 38.6424L44 29.0001M4 19.0001L23.2845 9.3579C23.5468 9.22672 23.678 9.16113 23.8156 9.13531C23.9375 9.11245 24.0625 9.11245 24.1844 9.13531C24.322 9.16113 24.4532 9.22672 24.7155 9.3579L44 19.0001L24.7155 28.6424C24.4532 28.7735 24.322 28.8391 24.1844 28.8649C24.0625 28.8878 23.9375 28.8878 23.8156 28.8649C23.678 28.8391 23.5468 28.7735 23.2845 28.6424L4 19.0001Z" stroke="#475467" stroke-width="2" stroke-linecap="round" stroke-linejoin="round"/>
</svg>
