<svg width="48" height="48" viewBox="0 0 48 48" fill="none" xmlns="http://www.w3.org/2000/svg">
<path d="M32.0007 18V12C32.0007 7.58172 28.419 4 24.0007 4C19.5825 4 16.0007 7.58172 16.0007 12V18M7.18474 20.7039L5.98475 33.5039C5.64355 37.1433 5.47295 38.963 6.07684 40.3685C6.60733 41.6033 7.53698 42.6241 8.71678 43.2676C10.0598 44 11.8875 44 15.5428 44H32.4586C36.114 44 37.9417 44 39.2847 43.2676C40.4645 42.6241 41.3941 41.6033 41.9246 40.3685C42.5285 38.963 42.3579 37.1433 42.0167 33.5039L40.8167 20.7039C40.5286 17.6307 40.3846 16.0941 39.6934 14.9323C39.0847 13.9092 38.1854 13.0902 37.1099 12.5797C35.8887 12 34.3454 12 31.2586 12L16.7428 12C13.6561 12 12.1128 12 10.8916 12.5797C9.81607 13.0902 8.91675 13.9092 8.30806 14.9323C7.61692 16.0941 7.47286 17.6307 7.18474 20.7039Z" stroke="#475467" stroke-width="2" stroke-linecap="round" stroke-linejoin="round"/>
</svg>
