<svg width="48" height="48" viewBox="0 0 48 48" fill="none" xmlns="http://www.w3.org/2000/svg">
<path d="M32.4854 11.5146C37.1717 16.2009 37.1717 23.7989 32.4854 28.4852M15.5147 28.4852C10.8284 23.7989 10.8284 16.2009 15.5147 11.5146M9.85744 34.1422C2.04695 26.3317 2.04695 13.6684 9.85744 5.85791M38.1426 5.85791C45.9531 13.6684 45.9531 26.3317 38.1426 34.1422M24 24C26.2092 24 28 22.2091 28 20C28 17.7909 26.2092 16 24 16C21.7909 16 20 17.7909 20 20C20 22.2091 21.7909 24 24 24ZM24 24V42" stroke="#475467" stroke-width="2" stroke-linecap="round" stroke-linejoin="round"/>
</svg>
