<svg width="48" height="48" viewBox="0 0 48 48" fill="none" xmlns="http://www.w3.org/2000/svg">
<path d="M39.4545 20C39.4545 11.3842 32.4238 4 23.8545 4C15.2852 4 8.52237 11.3842 8.52237 20M39.4545 20H38.9091C36.7 20 34.9091 21.7909 34.9091 24V30C34.9091 32.2091 36.7 34 38.9091 34H39.4545M39.4545 20H40C42.2091 20 44 21.7909 44 24V30C44 32.2091 42.2091 34 40 34H39.4545M8.52237 20H8C5.79086 20 4 21.7909 4 24V30C4 32.2091 5.79086 34 8 34H9.09091C11.3 34 13.0909 32.2091 13.0909 30V24C13.0909 21.7909 11.3 20 9.09091 20H8.52237ZM39.4545 34C38.5455 38 35.6364 42.4 31.2727 44" stroke="#475467" stroke-width="2" stroke-linecap="round"/>
</svg>
